<svg width="2642" height="645" viewBox="0 0 2642 645" fill="none" xmlns="http://www.w3.org/2000/svg">
<path d="M67 1H1V65.2854M67 1V65.2854M67 1H133M67 65.2854H1M67 65.2854H133M67 65.2854V129.571M1 65.2854V129.571M133 1V65.2854M133 1H199M133 65.2854H199M133 65.2854V129.571M199 1V65.2854M199 1H265M199 65.2854H265M199 65.2854V129.571M265 1V65.2854M265 1H331M265 65.2854H331M265 65.2854V129.571M331 1V65.2854M331 1H397M331 65.2854H397M331 65.2854V129.571M397 1V65.2854M397 1H463M397 65.2854H463M397 65.2854V129.571M463 1V65.2854M463 1H529M463 65.2854H529M463 65.2854V129.571M529 1V65.2854M529 1H595M529 65.2854H595M529 65.2854V129.571M595 1V65.2854M595 1H661M595 65.2854H661M595 65.2854V129.571M661 1V65.2854M661 1H727M661 65.2854H727M661 65.2854V129.571M727 1V65.2854M727 1H793M727 65.2854H793M727 65.2854V129.571M793 1V65.2854M793 1H859M793 65.2854H859M793 65.2854V129.571M859 1V65.2854M859 1H925M859 65.2854H925M859 65.2854V129.571M925 1V65.2854M925 1H991M925 65.2854H991M925 65.2854V129.571M991 1V65.2854M991 1H1057M991 65.2854H1057M991 65.2854V129.571M1057 1V65.2854M1057 1H1123M1057 65.2854H1123M1057 65.2854V129.571M1123 1V65.2854M1123 1H1189M1123 65.2854H1189M1123 65.2854V129.571M1189 1V65.2854M1189 1H1255M1189 65.2854H1255M1189 65.2854V129.571M1255 1V65.2854M1255 1H1321M1255 65.2854H1321M1255 65.2854V129.571M1321 1V65.2854M1321 1H1387M1321 65.2854V129.571M1321 65.2854H1387M67 129.571H1M67 129.571H133M67 129.571V193.856M1 129.571V193.856M133 129.571H199M133 129.571V193.856M199 129.571H265M199 129.571V193.856M265 129.571H331M265 129.571V193.856M331 129.571H397M331 129.571V193.856M397 129.571H463M397 129.571V193.856M463 129.571H529M463 129.571V193.856M529 129.571H595M529 129.571V193.856M595 129.571H661M595 129.571V193.856M661 129.571H727M661 129.571V193.856M727 129.571H793M727 129.571V193.856M793 129.571H859M793 129.571V193.856M859 129.571H925M859 129.571V193.856M925 129.571H991M925 129.571V193.856M991 129.571H1057M991 129.571V193.856M1057 129.571H1123M1057 129.571V193.856M1123 129.571H1189M1123 129.571V193.856M1189 129.571H1255M1189 129.571V193.856M1255 129.571H1321M1255 129.571V193.856M1321 129.571V193.856M1321 129.571H1387M67 193.856H1M67 193.856H133M67 193.856V258.142M1 193.856V258.142M133 193.856H199M133 193.856V258.142M199 193.856H265M199 193.856V258.142M265 193.856H331M265 193.856V258.142M331 193.856H397M331 193.856V258.142M397 193.856H463M397 193.856V258.142M463 193.856H529M463 193.856V258.142M529 193.856H595M529 193.856V258.142M595 193.856H661M595 193.856V258.142M661 193.856H727M661 193.856V258.142M727 193.856H793M727 193.856V258.142M793 193.856H859M793 193.856V258.142M859 193.856H925M859 193.856V258.142M925 193.856H991M925 193.856V258.142M991 193.856H1057M991 193.856V258.142M1057 193.856H1123M1057 193.856V258.142M1123 193.856H1189M1123 193.856V258.142M1189 193.856H1255M1189 193.856V258.142M1255 193.856H1321M1255 193.856V258.142M1321 193.856V258.142M1321 193.856H1387M67 258.142H1M67 258.142H133M67 258.142V322.427M1 258.142V322.427M133 258.142H199M133 258.142V322.427M199 258.142H265M199 258.142V322.427M265 258.142H331M265 258.142V322.427M331 258.142H397M331 258.142V322.427M397 258.142H463M397 258.142V322.427M463 258.142H529M463 258.142V322.427M529 258.142H595M529 258.142V322.427M595 258.142H661M595 258.142V322.427M661 258.142H727M661 258.142V322.427M727 258.142H793M727 258.142V322.427M793 258.142H859M793 258.142V322.427M859 258.142H925M859 258.142V322.427M925 258.142H991M925 258.142V322.427M991 258.142H1057M991 258.142V322.427M1057 258.142H1123M1057 258.142V322.427M1123 258.142H1189M1123 258.142V322.427M1189 258.142H1255M1189 258.142V322.427M1255 258.142H1321M1255 258.142V322.427M1321 258.142V322.427M1321 258.142H1387M67 322.427H1M67 322.427H133M67 322.427V386.712M1 322.427V386.712M133 322.427H199M133 322.427V386.712M199 322.427H265M199 322.427V386.712M265 322.427H331M265 322.427V386.712M331 322.427H397M331 322.427V386.712M397 322.427H463M397 322.427V386.712M463 322.427H529M463 322.427V386.712M529 322.427H595M529 322.427V386.712M595 322.427H661M595 322.427V386.712M661 322.427H727M661 322.427V386.712M727 322.427H793M727 322.427V386.712M793 322.427H859M793 322.427V386.712M859 322.427H925M859 322.427V386.712M925 322.427H991M925 322.427V386.712M991 322.427H1057M991 322.427V386.712M1057 322.427H1123M1057 322.427V386.712M1123 322.427H1189M1123 322.427V386.712M1189 322.427H1255M1189 322.427V386.712M1255 322.427H1321M1255 322.427V386.712M1321 322.427V386.712M1321 322.427H1387M67 386.712H1M67 386.712H133M67 386.712V450.998M1 386.712V450.998M133 386.712H199M133 386.712V450.998M199 386.712H265M199 386.712V450.998M265 386.712H331M265 386.712V450.998M331 386.712H397M331 386.712V450.998M397 386.712H463M397 386.712V450.998M463 386.712H529M463 386.712V450.998M529 386.712H595M529 386.712V450.998M595 386.712H661M595 386.712V450.998M661 386.712H727M661 386.712V450.998M727 386.712H793M727 386.712V450.998M793 386.712H859M793 386.712V450.998M859 386.712H925M859 386.712V450.998M925 386.712H991M925 386.712V450.998M991 386.712H1057M991 386.712V450.998M1057 386.712H1123M1057 386.712V450.998M1123 386.712H1189M1123 386.712V450.998M1189 386.712H1255M1189 386.712V450.998M1255 386.712H1321M1255 386.712V450.998M1321 386.712V450.998M1321 386.712H1387M67 450.998H1M67 450.998H133M67 450.998V515.283M1 450.998V515.283M133 450.998H199M133 450.998V515.283M199 450.998H265M199 450.998V515.283M265 450.998H331M265 450.998V515.283M331 450.998H397M331 450.998V515.283M397 450.998H463M397 450.998V515.283M463 450.998H529M463 450.998V515.283M529 450.998H595M529 450.998V515.283M595 450.998H661M595 450.998V515.283M661 450.998H727M661 450.998V515.283M727 450.998H793M727 450.998V515.283M793 450.998H859M793 450.998V515.283M859 450.998H925M859 450.998V515.283M925 450.998H991M925 450.998V515.283M991 450.998H1057M991 450.998V515.283M1057 450.998H1123M1057 450.998V515.283M1123 450.998H1189M1123 450.998V515.283M1189 450.998H1255M1189 450.998V515.283M1255 450.998H1321M1255 450.998V515.283M1321 450.998V515.283M1321 450.998H1387M67 515.283H1M67 515.283H133M67 515.283V579.569M1 515.283V579.569M133 515.283H199M133 515.283V579.569M199 515.283H265M199 515.283V579.569M265 515.283H331M265 515.283V579.569M331 515.283H397M331 515.283V579.569M397 515.283H463M397 515.283V579.569M463 515.283H529M463 515.283V579.569M529 515.283H595M529 515.283V579.569M595 515.283H661M595 515.283V579.569M661 515.283H727M661 515.283V579.569M727 515.283H793M727 515.283V579.569M793 515.283H859M793 515.283V579.569M859 515.283H925M859 515.283V579.569M925 515.283H991M925 515.283V579.569M991 515.283H1057M991 515.283V579.569M1057 515.283H1123M1057 515.283V579.569M1123 515.283H1189M1123 515.283V579.569M1189 515.283H1255M1189 515.283V579.569M1255 515.283H1321M1255 515.283V579.569M1321 515.283V579.569M1321 515.283H1387M67 579.569H1M67 579.569H133M67 579.569V643.854M1 579.569V643.854H67M133 579.569H199M133 579.569V643.854M199 579.569H265M199 579.569V643.854M265 579.569H331M265 579.569V643.854M331 579.569H397M331 579.569V643.854M397 579.569H463M397 579.569V643.854M463 579.569H529M463 579.569V643.854M529 579.569H595M529 579.569V643.854M595 579.569H661M595 579.569V643.854M661 579.569H727M661 579.569V643.854M727 579.569H793M727 579.569V643.854M793 579.569H859M793 579.569V643.854M859 579.569H925M859 579.569V643.854M925 579.569H991M925 579.569V643.854M991 579.569H1057M991 579.569V643.854M1057 579.569H1123M1057 579.569V643.854M1123 579.569H1189M1123 579.569V643.854M1189 579.569H1255M1189 579.569V643.854M1255 579.569H1321M1255 579.569V643.854M1321 579.569V643.854M1321 579.569H1387M67 643.854H133M133 643.854H199M199 643.854H265M265 643.854H331M331 643.854H397M397 643.854H463M463 643.854H529M529 643.854H595M595 643.854H661M661 643.854H727M727 643.854H793M793 643.854H859M859 643.854H925M925 643.854H991M991 643.854H1057M1057 643.854H1123M1123 643.854H1189M1189 643.854H1255M1255 643.854H1321M1321 643.854H1387M1387 1V65.2854M1387 1H1453M1387 65.2854H1453M1387 65.2854V129.571M1453 1V65.2854M1453 1H1519M1453 65.2854H1519M1453 65.2854V129.571M1519 1V65.2854M1519 1H1585M1519 65.2854H1585M1519 65.2854V129.571M1585 1V65.2854M1585 1H1651M1585 65.2854H1651M1585 65.2854V129.571M1651 1V65.2854M1651 1H1717M1651 65.2854H1717M1651 65.2854V129.571M1717 1V65.2854M1717 1H1783M1717 65.2854H1783M1717 65.2854V129.571M1783 1V65.2854M1783 1H1849M1783 65.2854H1849M1783 65.2854V129.571M1849 1V65.2854M1849 1H1915M1849 65.2854H1915M1849 65.2854V129.571M1915 1V65.2854M1915 1H1981M1915 65.2854H1981M1915 65.2854V129.571M1981 1V65.2854M1981 1H2047M1981 65.2854H2047M1981 65.2854V129.571M2047 1V65.2854M2047 1H2113M2047 65.2854H2113M2047 65.2854V129.571M2113 1V65.2854M2113 1H2179M2113 65.2854H2179M2113 65.2854V129.571M2179 1V65.2854M2179 1H2245M2179 65.2854H2245M2179 65.2854V129.571M2245 1V65.2854M2245 1H2311M2245 65.2854H2311M2245 65.2854V129.571M2311 1V65.2854M2311 1H2377M2311 65.2854H2377M2311 65.2854V129.571M2377 1V65.2854M2377 1H2443M2377 65.2854H2443M2377 65.2854V129.571M2443 1V65.2854M2443 1H2509M2443 65.2854H2509M2443 65.2854V129.571M2509 1V65.2854M2509 1H2575M2509 65.2854H2575M2509 65.2854V129.571M2575 1V65.2854M2575 1H2641V65.2854M2575 65.2854H2641M2575 65.2854V129.571M2641 65.2854V129.571M1387 129.571H1453M1387 129.571V193.856M1453 129.571H1519M1453 129.571V193.856M1519 129.571H1585M1519 129.571V193.856M1585 129.571H1651M1585 129.571V193.856M1651 129.571H1717M1651 129.571V193.856M1717 129.571H1783M1717 129.571V193.856M1783 129.571H1849M1783 129.571V193.856M1849 129.571H1915M1849 129.571V193.856M1915 129.571H1981M1915 129.571V193.856M1981 129.571H2047M1981 129.571V193.856M2047 129.571H2113M2047 129.571V193.856M2113 129.571H2179M2113 129.571V193.856M2179 129.571H2245M2179 129.571V193.856M2245 129.571H2311M2245 129.571V193.856M2311 129.571H2377M2311 129.571V193.856M2377 129.571H2443M2377 129.571V193.856M2443 129.571H2509M2443 129.571V193.856M2509 129.571H2575M2509 129.571V193.856M2575 129.571H2641M2575 129.571V193.856M2641 129.571V193.856M1387 193.856H1453M1387 193.856V258.142M1453 193.856H1519M1453 193.856V258.142M1519 193.856H1585M1519 193.856V258.142M1585 193.856H1651M1585 193.856V258.142M1651 193.856H1717M1651 193.856V258.142M1717 193.856H1783M1717 193.856V258.142M1783 193.856H1849M1783 193.856V258.142M1849 193.856H1915M1849 193.856V258.142M1915 193.856H1981M1915 193.856V258.142M1981 193.856H2047M1981 193.856V258.142M2047 193.856H2113M2047 193.856V258.142M2113 193.856H2179M2113 193.856V258.142M2179 193.856H2245M2179 193.856V258.142M2245 193.856H2311M2245 193.856V258.142M2311 193.856H2377M2311 193.856V258.142M2377 193.856H2443M2377 193.856V258.142M2443 193.856H2509M2443 193.856V258.142M2509 193.856H2575M2509 193.856V258.142M2575 193.856H2641M2575 193.856V258.142M2641 193.856V258.142M1387 258.142H1453M1387 258.142V322.427M1453 258.142H1519M1453 258.142V322.427M1519 258.142H1585M1519 258.142V322.427M1585 258.142H1651M1585 258.142V322.427M1651 258.142H1717M1651 258.142V322.427M1717 258.142H1783M1717 258.142V322.427M1783 258.142H1849M1783 258.142V322.427M1849 258.142H1915M1849 258.142V322.427M1915 258.142H1981M1915 258.142V322.427M1981 258.142H2047M1981 258.142V322.427M2047 258.142H2113M2047 258.142V322.427M2113 258.142H2179M2113 258.142V322.427M2179 258.142H2245M2179 258.142V322.427M2245 258.142H2311M2245 258.142V322.427M2311 258.142H2377M2311 258.142V322.427M2377 258.142H2443M2377 258.142V322.427M2443 258.142H2509M2443 258.142V322.427M2509 258.142H2575M2509 258.142V322.427M2575 258.142H2641M2575 258.142V322.427M2641 258.142V322.427M1387 322.427H1453M1387 322.427V386.712M1453 322.427H1519M1453 322.427V386.712M1519 322.427H1585M1519 322.427V386.712M1585 322.427H1651M1585 322.427V386.712M1651 322.427H1717M1651 322.427V386.712M1717 322.427H1783M1717 322.427V386.712M1783 322.427H1849M1783 322.427V386.712M1849 322.427H1915M1849 322.427V386.712M1915 322.427H1981M1915 322.427V386.712M1981 322.427H2047M1981 322.427V386.712M2047 322.427H2113M2047 322.427V386.712M2113 322.427H2179M2113 322.427V386.712M2179 322.427H2245M2179 322.427V386.712M2245 322.427H2311M2245 322.427V386.712M2311 322.427H2377M2311 322.427V386.712M2377 322.427H2443M2377 322.427V386.712M2443 322.427H2509M2443 322.427V386.712M2509 322.427H2575M2509 322.427V386.712M2575 322.427H2641M2575 322.427V386.712M2641 322.427V386.712M1387 386.712H1453M1387 386.712V450.998M1453 386.712H1519M1453 386.712V450.998M1519 386.712H1585M1519 386.712V450.998M1585 386.712H1651M1585 386.712V450.998M1651 386.712H1717M1651 386.712V450.998M1717 386.712H1783M1717 386.712V450.998M1783 386.712H1849M1783 386.712V450.998M1849 386.712H1915M1849 386.712V450.998M1915 386.712H1981M1915 386.712V450.998M1981 386.712H2047M1981 386.712V450.998M2047 386.712H2113M2047 386.712V450.998M2113 386.712H2179M2113 386.712V450.998M2179 386.712H2245M2179 386.712V450.998M2245 386.712H2311M2245 386.712V450.998M2311 386.712H2377M2311 386.712V450.998M2377 386.712H2443M2377 386.712V450.998M2443 386.712H2509M2443 386.712V450.998M2509 386.712H2575M2509 386.712V450.998M2575 386.712H2641M2575 386.712V450.998M2641 386.712V450.998M1387 450.998H1453M1387 450.998V515.283M1453 450.998H1519M1453 450.998V515.283M1519 450.998H1585M1519 450.998V515.283M1585 450.998H1651M1585 450.998V515.283M1651 450.998H1717M1651 450.998V515.283M1717 450.998H1783M1717 450.998V515.283M1783 450.998H1849M1783 450.998V515.283M1849 450.998H1915M1849 450.998V515.283M1915 450.998H1981M1915 450.998V515.283M1981 450.998H2047M1981 450.998V515.283M2047 450.998H2113M2047 450.998V515.283M2113 450.998H2179M2113 450.998V515.283M2179 450.998H2245M2179 450.998V515.283M2245 450.998H2311M2245 450.998V515.283M2311 450.998H2377M2311 450.998V515.283M2377 450.998H2443M2377 450.998V515.283M2443 450.998H2509M2443 450.998V515.283M2509 450.998H2575M2509 450.998V515.283M2575 450.998H2641M2575 450.998V515.283M2641 450.998V515.283M1387 515.283H1453M1387 515.283V579.569M1453 515.283H1519M1453 515.283V579.569M1519 515.283H1585M1519 515.283V579.569M1585 515.283H1651M1585 515.283V579.569M1651 515.283H1717M1651 515.283V579.569M1717 515.283H1783M1717 515.283V579.569M1783 515.283H1849M1783 515.283V579.569M1849 515.283H1915M1849 515.283V579.569M1915 515.283H1981M1915 515.283V579.569M1981 515.283H2047M1981 515.283V579.569M2047 515.283H2113M2047 515.283V579.569M2113 515.283H2179M2113 515.283V579.569M2179 515.283H2245M2179 515.283V579.569M2245 515.283H2311M2245 515.283V579.569M2311 515.283H2377M2311 515.283V579.569M2377 515.283H2443M2377 515.283V579.569M2443 515.283H2509M2443 515.283V579.569M2509 515.283H2575M2509 515.283V579.569M2575 515.283H2641M2575 515.283V579.569M2641 515.283V579.569M1387 579.569H1453M1387 579.569V643.854M1453 579.569H1519M1453 579.569V643.854M1519 579.569H1585M1519 579.569V643.854M1585 579.569H1651M1585 579.569V643.854M1651 579.569H1717M1651 579.569V643.854M1717 579.569H1783M1717 579.569V643.854M1783 579.569H1849M1783 579.569V643.854M1849 579.569H1915M1849 579.569V643.854M1915 579.569H1981M1915 579.569V643.854M1981 579.569H2047M1981 579.569V643.854M2047 579.569H2113M2047 579.569V643.854M2113 579.569H2179M2113 579.569V643.854M2179 579.569H2245M2179 579.569V643.854M2245 579.569H2311M2245 579.569V643.854M2311 579.569H2377M2311 579.569V643.854M2377 579.569H2443M2377 579.569V643.854M2443 579.569H2509M2443 579.569V643.854M2509 579.569H2575M2509 579.569V643.854M2575 579.569H2641M2575 579.569V643.854M2641 579.569V643.854H2575M1387 643.854H1453M1453 643.854H1519M1519 643.854H1585M1585 643.854H1651M1651 643.854H1717M1717 643.854H1783M1783 643.854H1849M1849 643.854H1915M1915 643.854H1981M1981 643.854H2047M2047 643.854H2113M2113 643.854H2179M2179 643.854H2245M2245 643.854H2311M2311 643.854H2377M2377 643.854H2443M2443 643.854H2509M2509 643.854H2575" stroke="url(#paint0_radial_16_400)"/>
<defs>
<radialGradient id="paint0_radial_16_400" cx="0" cy="0" r="1" gradientUnits="userSpaceOnUse" gradientTransform="translate(1380.5 676) rotate(-90.0626) scale(916.001 4688.13)">
<stop stop-color="#310099" stop-opacity="0"/>
<stop offset="0.215" stop-color="#310099" stop-opacity="0"/>
<stop offset="1" stop-color="#5100FF" stop-opacity="0.15"/>
</radialGradient>
</defs>
</svg>
